<svg width="32" height="32" viewBox="0 0 32 32" fill="none" xmlns="http://www.w3.org/2000/svg">
<path d="M15.9998 2.66666C23.3732 2.66666 29.3332 8.62666 29.3332 16C29.3332 23.3733 23.3732 29.3333 15.9998 29.3333C8.6265 29.3333 2.6665 23.3733 2.6665 16C2.6665 8.62666 8.6265 2.66666 15.9998 2.66666ZM21.7265 10.2733C21.2074 9.75417 20.3657 9.75418 19.8465 10.2733L15.9998 14.12L12.1532 10.2733C11.634 9.75418 10.7923 9.75417 10.2732 10.2733C9.75402 10.7925 9.75402 11.6342 10.2732 12.1533L14.1198 16L10.2732 19.8467C9.75402 20.3658 9.75402 21.2075 10.2732 21.7267C10.7923 22.2458 11.634 22.2458 12.1532 21.7267L15.9998 17.88L19.8465 21.7267C20.3657 22.2458 21.2074 22.2458 21.7265 21.7267C22.2457 21.2075 22.2456 20.3658 21.7265 19.8467L17.8798 16L21.7265 12.1533C22.2456 11.6342 22.2457 10.7925 21.7265 10.2733Z" fill="white"/>
</svg>
