<svg width="167" height="31" viewBox="0 0 167 31" fill="none" xmlns="http://www.w3.org/2000/svg">
<path d="M58.4159 23.9999V1.21594H54.1599L49.1679 10.2399L44.1759 1.21594H39.9199V23.9999H44.1759V9.43994L47.9839 16.3199H50.3519L54.1599 9.43994V23.9999H58.4159Z" fill="#2B2B2B"/>
<path d="M67.4157 30.5599L75.7357 7.77594H71.3197L68.0557 17.5679L64.8237 7.77594H60.4077L65.9437 22.9759L63.2557 30.5599H67.4157Z" fill="#2B2B2B"/>
<path d="M90.9484 23.9999V14.4319C90.9484 9.34394 87.6844 7.58394 85.1244 7.58394C83.9724 7.58394 83.0124 7.93594 81.8924 8.89594L81.8284 7.77594H77.9244V23.9999H82.0204V14.2719C82.3724 11.9999 83.6204 11.3279 84.6444 11.3279C85.6044 11.3279 86.8524 11.9039 86.8524 14.6879V23.9999H90.9484Z" fill="#2B2B2B"/>
<path d="M102.99 19.9359C102.318 20.1919 101.198 20.4479 100.59 20.4479C99.6299 20.4479 99.1819 20.1919 99.1819 18.5279V11.3919H102.926V7.77594H99.1819V3.19994H95.0859V7.77594H93.4219V11.3919H95.0859V18.8479C95.0859 21.8559 96.3659 24.1919 99.8219 24.1919C101.038 24.1919 102.062 23.9039 103.246 23.3599L102.99 19.9359Z" fill="#2B2B2B"/>
<circle cx="13" cy="13" r="13" fill="#2B2B2B"/>
<path d="M26 13C26 5.8203 20.1797 0 13 0V26C20.1797 26 26 20.1797 26 13Z" fill="white"/>
<circle cx="13" cy="13" r="12" stroke="#2B2B2B" stroke-width="2"/>
</svg>
