<svg width="136" height="36" viewBox="0 0 136 36" fill="none" xmlns="http://www.w3.org/2000/svg">
<path d="M84.4041 6.96051V28H80.5616V15.0805C80.5616 14.8098 80.5664 14.5198 80.5761 14.2105C80.5954 13.9012 80.6244 13.587 80.6631 13.268L74.6456 24.6795C74.3169 25.3078 73.8094 25.622 73.1231 25.622H72.5141C72.1758 25.622 71.8761 25.5447 71.6151 25.39C71.3541 25.2257 71.1463 24.9888 70.9916 24.6795L64.9451 13.2245C64.9741 13.5628 64.9983 13.8915 65.0176 14.2105C65.0369 14.5198 65.0466 14.8098 65.0466 15.0805V28H61.2041V6.96051H64.5101C64.6938 6.96051 64.8581 6.96534 65.0031 6.97501C65.1481 6.98468 65.2738 7.01368 65.3801 7.06201C65.4961 7.10068 65.5976 7.16834 65.6846 7.26501C65.7813 7.35201 65.8731 7.47768 65.9601 7.64201L71.8471 18.865C72.0308 19.2033 72.1999 19.5513 72.3546 19.909C72.5189 20.2667 72.6736 20.634 72.8186 21.011C72.9636 20.6243 73.1134 20.2473 73.2681 19.88C73.4324 19.5127 73.6064 19.1598 73.7901 18.8215L79.6336 7.64201C79.7206 7.47768 79.8124 7.35201 79.9091 7.26501C80.0058 7.16834 80.1073 7.10068 80.2136 7.06201C80.3296 7.01368 80.4553 6.98468 80.5906 6.97501C80.7356 6.96534 80.9048 6.96051 81.0981 6.96051H84.4041Z" fill="#333333"/>
<path d="M101.788 13.0505L93.7256 32.0165C93.5999 32.2872 93.4452 32.4902 93.2616 32.6255C93.0876 32.7608 92.8072 32.8285 92.4206 32.8285H89.4481L92.2756 26.7965L86.2726 13.0505H89.7816C90.1006 13.0505 90.3471 13.123 90.5211 13.268C90.6951 13.413 90.8207 13.5822 90.8981 13.7755L93.7401 20.924C93.8464 21.2043 93.9382 21.4895 94.0156 21.7795C94.1026 22.0598 94.1847 22.3402 94.2621 22.6205C94.4361 22.0502 94.6342 21.4798 94.8566 20.9095L97.4956 13.7755C97.5729 13.5628 97.7131 13.3888 97.9161 13.2535C98.1191 13.1182 98.3414 13.0505 98.5831 13.0505H101.788Z" fill="#333333"/>
<path d="M107.072 14.7905C107.372 14.5005 107.681 14.2347 108 13.993C108.329 13.7513 108.672 13.5435 109.03 13.3695C109.397 13.1955 109.788 13.0602 110.204 12.9635C110.629 12.8668 111.089 12.8185 111.582 12.8185C112.394 12.8185 113.114 12.9587 113.742 13.239C114.37 13.5193 114.897 13.9108 115.323 14.4135C115.758 14.9162 116.081 15.5155 116.294 16.2115C116.516 16.9075 116.628 17.6712 116.628 18.5025V28H112.64V18.5025C112.64 17.6712 112.447 17.0283 112.06 16.574C111.673 16.11 111.103 15.878 110.349 15.878C109.788 15.878 109.262 15.9988 108.769 16.2405C108.276 16.4822 107.807 16.8205 107.362 17.2555V28H103.36V13.0505H105.825C106.328 13.0505 106.661 13.2825 106.826 13.7465L107.072 14.7905Z" fill="#333333"/>
<path d="M124.778 28.232C124.101 28.232 123.502 28.1353 122.98 27.942C122.458 27.739 122.018 27.4538 121.66 27.0865C121.303 26.7192 121.032 26.2745 120.848 25.7525C120.665 25.2305 120.573 24.6408 120.573 23.9835V15.9215H119.166C118.954 15.9215 118.77 15.8538 118.615 15.7185C118.47 15.5832 118.398 15.3802 118.398 15.1095V13.5435L120.79 13.1085L121.602 9.23701C121.709 8.80201 122.004 8.58451 122.487 8.58451H124.575V13.1375H128.432V15.9215H124.575V23.7225C124.575 24.1382 124.672 24.4668 124.865 24.7085C125.068 24.9502 125.353 25.071 125.72 25.071C125.914 25.071 126.078 25.0517 126.213 25.013C126.349 24.9647 126.465 24.9163 126.561 24.868C126.658 24.81 126.745 24.7617 126.822 24.723C126.909 24.6747 126.996 24.6505 127.083 24.6505C127.199 24.6505 127.296 24.6795 127.373 24.7375C127.451 24.7858 127.528 24.8728 127.605 24.9985L128.809 26.9125C128.258 27.3475 127.634 27.6762 126.938 27.8985C126.242 28.1208 125.522 28.232 124.778 28.232Z" fill="#333333"/>
<circle cx="34" cy="18" r="16" fill="#FFD600"/>
<circle cx="34" cy="18" r="16" fill="#FFD600"/>
<path fill-rule="evenodd" clip-rule="evenodd" d="M28.4853 5.51472C33.1716 10.201 33.1716 17.799 28.4853 22.4853L20.4853 30.4853C15.799 35.1716 8.20101 35.1716 3.51472 30.4853C-1.17157 25.799 -1.17157 18.201 3.51472 13.5147L11.5147 5.51472C16.201 0.828427 23.799 0.828427 28.4853 5.51472Z" fill="#FFAE34"/>
</svg>
